# xmcd CD database file
# Copyright (C) 1997 Ti Kan
# 
# Track frame offsets:
#     182
#     15287
#     34537
#     48345
#     75712
#     90015
#     105922
#     122752
#     137707
#     150045
#     162937
#     174645
#     191932
#     213420
# 
# Disc length: 3001 seconds
# 
# Revision: 1
# Processed by: cddbd v1.4b41PL1 Copyright (c) Steve Scherf et al.
# Submitted via: DiscPlay 4.0.4
# 
DISCID=9b0bb70e
DTITLE=Sunnyland Slim - Live At The D.C. Blues Society
DYEAR=1900
DGENRE=
TTITLE0=Got A Thing Going On
TTITLE1=Everytime I GetsTo Drinking
TTITLE2=Got To Get My Baby
TTITLE3=Lend Me Your Love
TTITLE4=When I Was Young
TTITLE5=I Won't Do That No More
TTITLE6=My Baby, She Don't Love Me No More
TTITLE7=Blues Improvisation
TTITLE8=Gonna Be My Baby
TTITLE9=Blues Improvisation
TTITLE10=If I Done You Wrong
TTITLE11=Dust My Broom
TTITLE12=Run Here Baby
TTITLE13=Be Careful How You Vote
EXTD=
EXTT0=
EXTT1=
EXTT2=
EXTT3=
EXTT4=
EXTT5=
EXTT6=
EXTT7=
EXTT8=
EXTT9=
EXTT10=
EXTT11=
EXTT12=
EXTT13=
PLAYORDER=
